<?xml version="1.0" encoding="iso-8859-1"?>
<!-- Generator: Adobe Illustrator 20.0.0, SVG Export Plug-In . SVG Version: 6.00 Build 0)  -->
<svg version="1.1" id="Layer_1_1_" xmlns="http://www.w3.org/2000/svg" xmlns:xlink="http://www.w3.org/1999/xlink" x="0px" y="0px"
	 viewBox="0 0 64 64" style="enable-background:new 0 0 64 64;" xml:space="preserve">
<g id="Guide">
	<g>
	</g>
	<g>
	</g>
	<g>
	</g>
	<g>
	</g>
	<g>
	</g>
	<g>
	</g>
	<g>
	</g>
	<g>
	</g>
	<g>
	</g>
	<g>
	</g>
	<g>
	</g>
	<g>
	</g>
	<g>
	</g>
	<g>
	</g>
	<g>
	</g>
	<g>
	</g>
	<g>
	</g>
	<g>
	</g>
	<g>
	</g>
	<g>
	</g>
	<g>
	</g>
	<g>
	</g>
	<g>
	</g>
	<g>
	</g>
	<g>
	</g>
	<g>
	</g>
	<g>
	</g>
	<g>
	</g>
	<g>
	</g>
	<g>
	</g>
	<g>
	</g>
	<g>
	</g>
	<g>
	</g>
	<g>
	</g>
	<g>
	</g>
	<g>
	</g>
</g>
<path d="M53.706,9.292l-8.998-8.998C44.527,0.112,44.277,0,44,0H8C5.243,0,3,2.243,3,5v54c0,2.757,2.243,5,5,5h32h16
	c2.757,0,5-2.243,5-5V49c0-2.757-2.243-5-5-5h-2V10C54,9.723,53.888,9.473,53.706,9.292z M50,44h-4v-1c0-0.552,0.449-1,1-1h2
	c0.551,0,1,0.448,1,1V44z M52,46v16h-8V46H52z M45,3.414L50.586,9H45V3.414z M5,59V5c0-1.654,1.346-3,3-3h35v8c0,0.553,0.448,1,1,1
	h8v32c0-1.654-1.346-3-3-3h-2c-1.654,0-3,1.346-3,3v1h-4c-2.757,0-5,2.243-5,5v10c0,1.13,0.391,2.162,1.026,3H8
	C6.346,62,5,60.654,5,59z M37,59V49c0-1.654,1.346-3,3-3h2v16h-2C38.346,62,37,60.654,37,59z M59,49v10c0,1.654-1.346,3-3,3h-2V46h2
	C57.654,46,59,47.346,59,49z"/>
<rect x="25" y="24" width="14" height="2"/>
<rect x="18" y="5" width="20" height="2"/>
<rect x="15" y="9" width="26" height="2"/>
<path d="M21,29h-9v-8h5v-2h-6c-0.552,0-1,0.447-1,1v10c0,0.553,0.448,1,1,1h11c0.552,0,1-0.447,1-1v-6h-2V29z"/>
<path d="M14.707,23.293l-1.414,1.414l2,2C15.488,26.902,15.744,27,16,27s0.512-0.098,0.707-0.293l6-6l-1.414-1.414L16,24.586
	L14.707,23.293z"/>
<rect x="25" y="38" width="14" height="2"/>
<path d="M21,43h-9v-8h5v-2h-6c-0.552,0-1,0.447-1,1v10c0,0.553,0.448,1,1,1h11c0.552,0,1-0.447,1-1v-6h-2V43z"/>
<path d="M14.707,37.293l-1.414,1.414l2,2C15.488,40.902,15.744,41,16,41s0.512-0.098,0.707-0.293l6-6l-1.414-1.414L16,38.586
	L14.707,37.293z"/>
<rect x="25" y="52" width="8" height="2"/>
<path d="M21,57h-9v-8h5v-2h-6c-0.552,0-1,0.447-1,1v10c0,0.553,0.448,1,1,1h11c0.552,0,1-0.447,1-1v-6h-2V57z"/>
<path d="M14.707,51.293l-1.414,1.414l2,2C15.488,54.902,15.744,55,16,55s0.512-0.098,0.707-0.293l6-6l-1.414-1.414L16,52.586
	L14.707,51.293z"/>
<rect x="15" y="13" width="2" height="2"/>
<rect x="19" y="13" width="2" height="2"/>
<rect x="23" y="13" width="2" height="2"/>
<rect x="27" y="13" width="2" height="2"/>
<rect x="31" y="13" width="2" height="2"/>
<rect x="35" y="13" width="2" height="2"/>
<rect x="39" y="13" width="2" height="2"/>
</svg>
