<svg enable-background="new 0 0 24 24" id="Layer_1" version="1.0" viewBox="0 0 24 24" xml:space="preserve" xmlns="http://www.w3.org/2000/svg" xmlns:xlink="http://www.w3.org/1999/xlink"><circle cx="12" cy="4" r="2"></circle><path d="M5.8,10.7c-0.1-0.2,0-0.5,0.2-0.6l5.5-2.2l-0.4-0.9l-6,2.3c-0.8,0.3-1.2,1.2-0.9,2l0.2,0.6c0.3,0.8,1.2,1.2,2,0.9l0,0  c0.2-0.1,0.3-0.3,0.2-0.4L5.8,10.7z"></path><path d="M4,8.6l2.6-1.1C6.4,3.5,9,2.4,9,2.4S4.8,3.4,4,8.6z"></path><path d="M14,14l0.2,1.8c0.1,0.6-0.1,1.3-0.3,1.8L11.5,22h2.3l2.6-5l0.5-4.4l-1.4-4.5l1.7-0.7c0.3-0.1,0.5-0.5,0.4-0.9  c-0.8-2.5-2.1-3.9-3.5-4.5c0.3,0.1,0.8,1,0.8,2c0,0,0,0.1,0,0.1c0.7,0.7,1.1,1.6,1.1,2l-2.6,1c0,0,0,0-0.1,0l-0.6,0.2  c-0.7,0.3-1,1.1-0.8,1.7L14,14z"></path><polygon points="20.7,22 17.6,13.7 17.1,17.4 18.8,22 "></polygon></svg>