<svg viewBox="0 0 64 64" xmlns="http://www.w3.org/2000/svg"><title></title><g id="Outline"><path d="M48,17H23V12a1.0013,1.0013,0,0,1,1-1H40a1.0013,1.0013,0,0,1,1,1v2a1,1,0,0,0,2,0V12a3.0033,3.0033,0,0,0-3-3H24a3.0033,3.0033,0,0,0-3,3v5H16a7.0078,7.0078,0,0,0-7,7V41a1,1,0,0,0,2,0V24a5.0059,5.0059,0,0,1,5-5H48a5.0059,5.0059,0,0,1,5,5V48a5.0059,5.0059,0,0,1-5,5H16a5.0059,5.0059,0,0,1-5-5v-.9585a1,1,0,0,0-2,0V48a7.0078,7.0078,0,0,0,7,7H48a7.0078,7.0078,0,0,0,7-7V24A7.0078,7.0078,0,0,0,48,17Z"></path><path d="M33,27H31a3.0033,3.0033,0,0,0-3,3v2H26a3.0033,3.0033,0,0,0-3,3v2a3.0033,3.0033,0,0,0,3,3h2v2a3.0033,3.0033,0,0,0,3,3h2a3.0033,3.0033,0,0,0,3-3V40h2a3.0033,3.0033,0,0,0,3-3V35a3.0033,3.0033,0,0,0-3-3H36V30A3.0033,3.0033,0,0,0,33,27Zm5,7a1.0013,1.0013,0,0,1,1,1v2a1.0013,1.0013,0,0,1-1,1H35a1,1,0,0,0-1,1v3a1.0013,1.0013,0,0,1-1,1H31a1.0013,1.0013,0,0,1-1-1V39a1,1,0,0,0-1-1H26a1.0013,1.0013,0,0,1-1-1V35a1.0013,1.0013,0,0,1,1-1h3a1,1,0,0,0,1-1V30a1.0013,1.0013,0,0,1,1-1h2a1.0013,1.0013,0,0,1,1,1v3a1,1,0,0,0,1,1Z"></path></g></svg>