<svg id="Layer_1" style="enable-background:new 0 0 24 24;" version="1.1" viewBox="0 0 24 24" xml:space="preserve" xmlns="http://www.w3.org/2000/svg" xmlns:xlink="http://www.w3.org/1999/xlink"><title></title><g id="Snowman"><g><path d="M14.74,5.28l0.73-4.23    c0,0-0.73-0.55-3.47-0.55S8.53,1.05,8.53,1.05l0.73,4.26" style="fill:none;stroke:#303C42;stroke-linecap:round;stroke-linejoin:round;"></path><circle cx="12" cy="15.5" r="0.5" style="fill:#303C42;"></circle><circle cx="12" cy="18" r="0.5" style="fill:#303C42;"></circle><circle cx="10.5" cy="6.5" r="0.5" style="fill:#303C42;"></circle><circle cx="13.5" cy="6.5" r="0.5" style="fill:#303C42;"></circle><path d="M7.73,12.11    c-2.707,2.358-2.989,6.464-0.631,9.171s6.464,2.989,9.171,0.631s2.989-6.464,0.631-9.171c-0.196-0.224-0.406-0.435-0.631-0.631" style="fill:none;stroke:#303C42;stroke-linecap:round;stroke-linejoin:round;"></path><path d="M8.5,10.5h7c0.552,0,1,0.448,1,1l0,0    c0,0.552-0.448,1-1,1h-7c-0.552,0-1-0.448-1-1l0,0C7.5,10.948,7.948,10.5,8.5,10.5z" style="fill:none;stroke:#303C42;stroke-linecap:round;stroke-linejoin:round;"></path><polyline points="13.5,12.5 13.5,15.5 14.5,15     15.5,15.5 15.5,12.5   " style="fill:none;stroke:#303C42;stroke-linecap:round;stroke-linejoin:round;"></polyline><polygon points="12,8 14,8 12,8.5   " style="fill:#303C42;stroke:#303C42;stroke-linecap:round;stroke-linejoin:round;"></polygon><g><path d="M15.09,10.5c1.209-1.447,1.209-3.553,0-5     l-0.25-0.07" style="fill:none;stroke:#303C42;stroke-linecap:round;stroke-linejoin:round;"></path><path d="M9.19,5.4L8.94,5.47     c-1.209,1.447-1.209,3.553,0,5" style="fill:none;stroke:#303C42;stroke-linecap:round;stroke-linejoin:round;"></path></g><path d="M7.38,6C8.849,5.396,10.413,5.057,12,5    c1.587,0.057,3.151,0.396,4.62,1" style="fill:none;stroke:#303C42;stroke-linecap:round;stroke-linejoin:round;"></path></g></g></svg>